<?xml version="1.0" encoding="UTF-8" standalone="no"?>
<!-- Created with Inkscape (http://www.inkscape.org/) -->

<svg
   xmlns:dc="http://purl.org/dc/elements/1.1/"
   xmlns:cc="http://creativecommons.org/ns#"
   xmlns:rdf="http://www.w3.org/1999/02/22-rdf-syntax-ns#"
   xmlns:svg="http://www.w3.org/2000/svg"
   xmlns="http://www.w3.org/2000/svg"
   xmlns:sodipodi="http://sodipodi.sourceforge.net/DTD/sodipodi-0.dtd"
   xmlns:inkscape="http://www.inkscape.org/namespaces/inkscape"
   width="320.685"
   height="320.00012"
   id="svg3941"
   version="1.1"
   inkscape:version="0.48.5 r10040"
   sodipodi:docname="segell-iluro-320x320.svg">
  <defs
     id="defs3943" />
  <sodipodi:namedview
     id="base"
     pagecolor="#ffffff"
     bordercolor="#666666"
     borderopacity="1.0"
     inkscape:pageopacity="0.0"
     inkscape:pageshadow="2"
     inkscape:zoom="0.35"
     inkscape:cx="-421.80035"
     inkscape:cy="158.57149"
     inkscape:document-units="px"
     inkscape:current-layer="capa1"
     showgrid="false"
     fit-margin-bottom="5"
     fit-margin-top="5"
     fit-margin-left="10"
     fit-margin-right="10"
     inkscape:window-width="1600"
     inkscape:window-height="1145"
     inkscape:window-x="-2"
     inkscape:window-y="32"
     inkscape:window-maximized="1" />
  <metadata
     id="metadata3946">
    <rdf:RDF>
      <cc:Work
         rdf:about="">
        <dc:format>image/svg+xml</dc:format>
        <dc:type
           rdf:resource="http://purl.org/dc/dcmitype/StillImage" />
        <dc:title></dc:title>
      </cc:Work>
    </rdf:RDF>
  </metadata>
  <g
     inkscape:label="Capa 1"
     inkscape:groupmode="layer"
     id="capa1"
     transform="translate(-188.22892,-360.93355)">
    <path
       inkscape:connector-curvature="0"
       id="path70"
       style="fill:#ffffff;fill-opacity:1;fill-rule:evenodd;stroke:none"
       d="m 349.70393,412.19008 c 0,0 19.51748,-39.24448 57.08394,-45.31628 35.80034,-5.78595 75.77517,15.78941 85.4928,46.62228 10.99425,34.87615 5.75069,62.20809 -5.88188,78.11694 -15.67781,21.43636 -28.5968,30.08686 -28.5968,30.08686 0,0 38.32422,24.73362 40.84027,61.76751 2.61199,38.39471 -13.36346,78.86297 -58.67974,89.88658 -45.31628,11.02363 -71.40488,-16.4532 -75.87894,-22.89702 -4.47406,-6.44382 -14.37965,-20.92726 -14.37965,-20.92726 0,0 -19.9972,45.31629 -68.95932,46.06033 -60.65145,0.92614 -84.00078,-49.14811 -81.01872,-91.19061 2.71185,-38.20479 40.36447,-63.07351 40.36447,-63.07351 0,0 -52.79591,-37.83471 -39.80448,-90.81859 12.99143,-52.98388 61.89871,-67.63766 89.5126,-63.81952 41.21425,5.69781 59.90545,45.50229 59.90545,45.50229 m 32.07423,78.86295 -2.052,-1.78179 c 0,0 -5.32581,6.17559 -9.1596,7.48158 -3.83379,1.30404 -9.90363,4.39183 -9.90363,4.39183 0,0 3.64778,1.78179 5.69782,3.45981 2.052,1.67801 5.13978,8.49583 5.13978,8.49583 0,0 1.86403,-9.34561 5.88385,-14.48344 4.01784,-5.13978 4.39378,-7.56382 4.39378,-7.56382 m -64.50483,0 c 0,0 0.37594,2.42404 4.39576,7.56382 4.01784,5.13783 5.88383,14.48344 5.88383,14.48344 0,0 3.08778,-6.81782 5.13978,-8.49583 2.05004,-1.67802 5.69782,-3.45981 5.69782,-3.45981 0,0 -6.0718,-3.08779 -9.90559,-4.39183 -3.83379,-1.30599 -9.1596,-7.48158 -9.1596,-7.48158 l -2.052,1.78179 z m -85.30481,-90.07259 c 0,0 10.27761,-3.75155 21.67326,3.73003 11.39759,7.47961 21.03299,28.40687 22.70905,31.86864 1.67998,3.45982 2.23997,4.39184 2.98597,3.8338 0.74405,-0.55999 2.25759,-1.59578 1.03579,-3.0878 -1.22376,-1.49201 -8.30785,-17.3852 -4.57979,-29.71482 3.72805,-12.32767 16.53347,-18.21345 22.60527,-16.90746 6.06986,1.306 10.4656,5.03601 10.4656,8.86784 0,3.83381 0.93005,4.66205 0,5.1398 -0.93397,0.4758 -13.1794,-8.57807 -20.55524,10.37943 -7.37585,18.96141 3.08779,31.76683 3.08779,31.76683 0,0 5.88383,-3.64778 9.71762,0.18601 3.8338,3.83379 -1.96976,9.71764 -1.96976,9.71764 l 10.64964,15.78941 c 0,0 -1.9678,-9.24182 -0.746,-17.65346 1.22376,-8.41358 6.83934,-17.09542 5.98956,-24.20301 -0.84978,-7.10759 -7.10758,-11.12545 -7.10758,-11.12545 0,0 14.75168,-4.20777 16.72144,4.94988 1.96976,9.15958 0,12.24737 0,12.24737 0,0 9.61385,-0.18601 9.90559,9.1596 0.28979,9.34364 -4.85,8.97161 -4.85,8.97161 0,0 7.00381,4.57785 3.35799,11.95565 -3.64777,7.37583 -11.95562,6.81584 -11.95562,6.81584 0,0 0.6618,7.1076 8.7856,12.99143 8.12184,5.88579 10.46364,4.76776 10.46364,4.76776 l 0,-51.0141 -5.32386,0 0,-15.41741 3.91407,0 c 0,0 -8.41162,-35.80621 -49.7081,-45.04805 -41.29649,-9.23986 -73.64877,28.94142 -75.58916,55.13965 -2.23017,30.09273 7.74982,47.84409 20.92726,60.73175 13.1794,12.88764 19.80923,14.66943 19.80923,14.66943 l 0,-1.9678 15.89321,0 0,6.73558 47.55429,0 c 0,0 2.23605,-8.49583 -4.39378,-15.78943 -6.62983,-7.29361 -11.58362,-7.10956 -11.58362,-7.10956 0,0 2.15579,6.6318 -4.95181,10.46559 -7.10759,3.83379 -12.61744,-2.42402 -12.61744,-2.42402 0,0 -3.73003,7.56185 -11.39565,6.06984 -7.66955,-1.49004 -8.78758,-8.22561 -8.78758,-8.22561 0,0 -13.73742,3.2738 -15.78746,-7.56186 -2.05201,-10.8376 2.71185,-13.17939 2.71185,-13.17939 0,0 0.93397,6.36159 7.18982,8.22757 6.25977,1.86403 19.91497,-4.47601 27.29082,-5.69977 7.37584,-1.22376 15.4174,2.052 15.4174,2.052 l -11.68738,-12.80738 c 0,0 -5.51183,5.98958 -10.4656,2.34374 -4.95181,-3.64778 -0.55803,-9.90559 -0.55803,-9.90559 0,0 -7.66758,-7.8536 -19.43721,-8.03961 -11.76768,-0.18602 -19.99329,5.98957 -21.29928,12.43339 -1.30404,6.44382 -0.18602,13.36346 -0.18602,13.36346 0,0 -16.82717,-3.83183 -13.55142,-18.12926 3.2738,-14.29743 15.22748,-17.57122 24.75911,-17.38521 9.53356,0.18601 18.77344,4.84804 20.36922,5.32383 1.59578,0.47972 2.71577,0.37398 2.90178,-0.55803 0.18601,-0.93201 -2.90178,-3.27576 -4.20582,-4.0198 -1.30599,-0.746 -15.12566,-0.64223 -26.62705,-19.33344 -11.49941,-18.68925 -8.97161,-24.38708 -8.97161,-24.38708 m 235.11445,0 c 0,0 2.52977,5.69783 -8.97161,24.38708 -11.50139,18.69121 -25.31908,18.58744 -26.62508,19.33344 -1.30405,0.74404 -4.3938,3.08779 -4.20778,4.0198 0.18797,0.93201 1.30599,1.03775 2.90373,0.55803 1.59384,-0.47579 10.83566,-5.13782 20.36728,-5.32383 9.53161,-0.18601 21.48725,3.08778 24.76105,17.38521 3.2738,14.29743 -13.55142,18.12926 -13.55142,18.12926 0,0 1.11998,-6.91964 -0.18602,-13.36346 -1.30599,-6.44382 -9.5316,-12.61941 -21.30123,-12.43339 -11.76964,0.18601 -19.43721,8.03961 -19.43721,8.03961 0,0 4.39378,6.25781 -0.55804,9.90559 -4.95181,3.64584 -10.46364,-2.34374 -10.46364,-2.34374 l -11.68933,12.80738 c 0,0 8.04156,-3.27576 15.41936,-2.052 7.37388,1.22376 21.03104,7.5638 27.28885,5.69977 6.25585,-1.86598 7.18982,-8.22757 7.18982,-8.22757 0,0 4.76386,2.34179 2.71382,13.17939 -2.05005,10.83566 -15.78943,7.56186 -15.78943,7.56186 0,0 -1.11803,6.73557 -8.78562,8.22561 -7.66562,1.49201 -11.39563,-6.06984 -11.39563,-6.06984 0,0 -5.51183,6.25781 -12.61941,2.42402 -7.10759,-3.83379 -4.95182,-10.46559 -4.95182,-10.46559 0,0 -4.95183,-0.18405 -11.58362,7.10956 -6.62983,7.2936 -4.39182,15.78943 -4.39182,15.78943 l 47.55233,0 0,-6.73558 15.89321,0 0,1.9678 c 0,0 6.6318,-1.78179 19.80923,-14.66943 13.1794,-12.88766 23.65479,-30.01833 20.92922,-60.73175 -2.32416,-26.1669 -34.29461,-64.37951 -75.58916,-55.13965 -41.29844,9.24184 -49.7081,45.04805 -49.7081,45.04805 l 3.91407,0 0,15.41741 -5.32384,0 0,51.0141 c 0,0 2.33982,1.11803 10.46362,-4.76776 8.12185,-5.88383 8.78562,-12.99143 8.78562,-12.99143 0,0 -8.30786,0.55999 -11.9576,-6.81584 -3.64582,-7.3778 3.35799,-11.95565 3.35799,-11.95565 0,0 -5.13978,0.37203 -4.84804,-8.97161 0.28979,-9.34561 9.90363,-9.1596 9.90363,-9.1596 0,0 -1.96976,-3.08779 0,-12.24737 1.96978,-9.15765 16.72145,-4.94988 16.72145,-4.94988 0,0 -6.25781,4.01786 -7.10759,11.12545 -0.84978,7.10759 4.7658,15.78943 5.98956,24.20301 1.2218,8.41164 -0.746,17.65346 -0.746,17.65346 l 10.6516,-15.78941 c 0,0 -5.80356,-5.88385 -1.96976,-9.71764 3.83379,-3.83379 9.71762,-0.18601 9.71762,-0.18601 0,0 10.46364,-12.80542 3.08779,-31.76683 -7.37779,-18.9575 -19.62322,-9.90363 -20.55524,-10.37943 -0.93201,-0.47775 0,-1.30599 0,-5.1398 0,-3.83183 4.39378,-7.56184 10.46364,-8.86784 6.0718,-1.30599 18.87722,4.57979 22.60528,16.90746 3.73001,12.32962 -3.35408,28.22281 -4.57784,29.71482 -1.2218,1.49202 0.28979,2.52781 1.03579,3.0878 0.746,0.55804 1.30599,-0.37398 2.98401,-3.8338 1.67802,-3.46177 11.31342,-24.38903 22.70905,-31.86864 11.39565,-7.48158 21.67326,-3.73003 21.67326,-3.73003 M 231.97244,640.44757 c 0,0 -2.5278,-5.69781 8.97161,-24.38902 11.50138,-18.68925 25.32106,-18.58548 26.62705,-19.33148 1.306,-0.746 4.39182,-3.08779 4.20581,-4.0198 -0.18797,-0.93201 -1.30599,-1.03579 -2.89981,-0.55999 -1.59774,0.47775 -10.83762,5.13978 -20.37119,5.32579 -9.52966,0.18601 -21.4853,-3.08778 -24.7591,-17.38521 -3.27576,-14.29743 13.55142,-18.13122 13.55142,-18.13122 0,0 -1.11802,6.9216 0.18601,13.36542 1.306,6.44382 9.53161,12.61941 21.29928,12.43339 11.76963,-0.18796 19.43721,-8.03961 19.43721,-8.03961 0,0 -4.39378,-6.25781 0.55804,-9.90559 4.95377,-3.64584 10.46559,2.34178 10.46559,2.34178 l 11.68738,-12.80542 c 0,0 -8.04156,3.2738 -15.41739,2.052 -7.37585,-1.22376 -21.03105,-7.5638 -27.28886,-5.69977 -6.25781,1.86598 -7.18982,8.22757 -7.18982,8.22757 0,0 -4.76582,-2.34179 -2.71381,-13.17939 2.052,-10.83762 15.78746,-7.56186 15.78746,-7.56186 0,0 1.11802,-6.73557 8.78562,-8.22757 7.66758,-1.49201 11.39761,6.0718 11.39761,6.0718 0,0 5.50985,-6.25781 12.61743,-2.42402 7.10956,3.83379 4.95182,10.46363 4.95182,10.46363 0,0 4.95379,0.18601 11.58362,-7.1076 6.62983,-7.2936 4.39378,-15.78943 4.39378,-15.78943 l -47.55429,0 0,6.73558 -15.89321,0 0,-1.96976 c 0,0 -6.62983,1.78375 -19.80923,14.67139 -13.17745,12.88766 -23.16135,30.99733 -20.92726,60.73175 1.9678,26.19627 34.29267,64.37755 75.58915,55.13769 41.29648,-9.23988 49.71007,-45.04609 49.71007,-45.04609 l -3.91603,0 0,-15.41545 5.32385,0 0,-51.01606 c 0,0 -2.3418,-1.11803 -10.46363,4.7658 -8.12184,5.88579 -8.78561,12.99339 -8.78561,12.99339 0,0 8.30981,-0.55999 11.95563,6.81584 3.64582,7.37584 -3.35603,11.95565 -3.35603,11.95565 0,0 5.13782,-0.37203 4.84804,8.97161 -0.29175,9.34561 -9.90559,9.1596 -9.90559,9.1596 0,0 1.96976,3.08779 0,12.24542 -1.96781,9.1596 -16.72145,4.95181 -16.72145,4.95181 0,0 6.25781,-4.0198 7.10759,-11.12739 0.84978,-7.10564 -4.76581,-15.78747 -5.98956,-24.20105 -1.2218,-8.4136 0.746,-17.65346 0.746,-17.65346 l -10.64769,15.78941 c 0,0 5.80161,5.88385 1.9678,9.71764 -3.83183,3.83379 -9.71762,0.18601 -9.71762,0.18601 0,0 -10.46363,12.80738 -3.08778,31.76487 7.37583,18.95946 19.62126,9.90559 20.55523,10.38139 0.93006,0.47775 0,1.30599 0,5.1398 0,3.83183 -4.39378,7.56184 -10.46363,8.86784 -6.0718,1.30404 -18.87918,-4.58175 -22.60724,-16.90942 -3.72805,-12.32766 3.35604,-28.22085 4.5798,-29.71286 1.22375,-1.49202 -0.29175,-2.52781 -1.03775,-3.08584 -0.74405,-0.56195 -1.306,0.37202 -2.98206,3.83184 -1.67801,3.46177 -11.31341,24.38903 -22.711,31.86864 -11.39565,7.47962 -21.67326,3.73001 -21.67326,3.73001 m 235.11641,0 c 0,0 -10.27957,3.74961 -21.67326,-3.73001 -11.39564,-7.47961 -21.033,-28.40687 -22.71101,-31.86864 -1.67802,-3.45982 -2.23605,-4.39379 -2.98206,-3.83184 -0.74796,0.55803 -2.2615,1.59382 -1.0397,3.08584 1.22376,1.49201 8.30981,17.3852 4.57979,29.71286 -3.72806,12.32767 -16.53348,18.21346 -22.60527,16.90942 -6.06984,-1.306 -10.46168,-5.03601 -10.46168,-8.86784 0,-3.83381 -0.93398,-4.66205 0,-5.1398 0.93005,-0.4758 13.17744,8.57807 20.55327,-10.38139 7.37586,-18.95749 -3.08778,-31.76487 -3.08778,-31.76487 0,0 -5.88383,3.64778 -9.71762,-0.18601 -3.83381,-3.83379 1.96976,-9.71764 1.96976,-9.71764 l -10.65161,-15.78941 c 0,0 1.96977,9.23986 0.74601,17.65346 -1.22376,8.41358 -6.83934,17.09541 -5.98956,24.20105 0.84977,7.10759 7.10758,11.12739 7.10758,11.12739 0,0 -14.75167,4.20779 -16.72144,-4.95181 -1.96976,-9.15763 0,-12.24542 0,-12.24542 0,0 -9.61385,0.18601 -9.90363,-9.1596 -0.29175,-9.34364 4.84804,-8.97161 4.84804,-8.97161 0,0 -7.00382,-4.57981 -3.35799,-11.95565 3.64973,-7.37583 11.9576,-6.81584 11.9576,-6.81584 0,0 -0.66377,-7.1076 -8.78562,-12.99339 -8.1238,-5.88383 -10.46363,-4.7658 -10.46363,-4.7658 l 0,51.01606 5.32384,0 0,15.41545 -3.91602,0 c 0,0 8.41358,35.80621 49.71006,45.04609 41.2965,9.23986 72.46221,-29.05498 75.58915,-55.13769 3.34039,-27.87822 -7.74981,-47.84409 -20.92921,-60.73175 -13.17743,-12.88764 -19.80728,-14.67139 -19.80728,-14.67139 l 0,1.96976 -15.8932,0 0,-6.73558 -47.5543,0 c 0,0 -2.23801,8.49583 4.39183,15.78943 6.63179,7.29361 11.58362,7.1076 11.58362,7.1076 0,0 -2.15578,-6.62984 4.95181,-10.46363 7.10759,-3.83379 12.61941,2.42402 12.61941,2.42402 0,0 3.73002,-7.56381 11.39759,-6.0718 7.66564,1.492 8.78367,8.22757 8.78367,8.22757 0,0 13.73937,-3.27576 15.79139,7.56186 2.04808,10.8376 -2.71578,13.17939 -2.71578,13.17939 0,0 -0.93398,-6.36159 -7.18983,-8.22757 -6.25781,-1.86403 -19.913,4.47601 -27.2908,5.69977 -7.37585,1.2218 -15.41545,-2.052 -15.41545,-2.052 l 11.68738,12.80542 c 0,0 5.51182,-5.98762 10.46364,-2.34178 4.95181,3.64778 0.55803,9.90559 0.55803,9.90559 0,0 7.66758,7.85165 19.43721,8.03961 11.76963,0.18602 19.99525,-5.98957 21.30124,-12.43339 1.30599,-6.44382 0.18405,-13.36542 0.18405,-13.36542 0,0 16.82718,3.83379 13.55338,18.13122 -3.27379,14.29743 -15.22944,17.57122 -24.76104,17.38521 -9.53163,-0.18601 -18.77345,-4.84804 -20.36728,-5.32579 -1.59774,-0.4758 -2.71577,-0.37202 -2.90374,0.55999 -0.18601,0.93201 2.90374,3.2738 4.20779,4.0198 1.30599,0.746 15.12565,0.64223 26.62507,19.33148 11.50139,18.69121 8.97358,24.38902 8.97358,24.38902 M 317.27921,550.375 l 2.05004,1.78179 c 0,0 5.32581,-6.17559 9.1596,-7.47963 3.83379,-1.30599 9.90558,-4.39378 9.90558,-4.39378 0,0 -3.64777,-1.78179 -5.69977,-3.46176 -2.05004,-1.67606 -5.13783,-8.49388 -5.13783,-8.49388 0,0 -1.86598,9.34561 -5.88383,14.48344 -4.01981,5.13978 -4.39379,7.56382 -4.39379,7.56382 m 64.50287,0 c 0,0 -0.37399,-2.42404 -4.39379,-7.56382 -4.01981,-5.13783 -5.88384,-14.48344 -5.88384,-14.48344 0,0 -3.08779,6.81782 -5.13783,8.49388 -2.05199,1.67997 -5.69781,3.46176 -5.69781,3.46176 0,0 6.06788,3.08779 9.90167,4.39378 3.83379,1.30404 9.1596,7.47963 9.1596,7.47963 l 2.052,-1.78179 z" />
  </g>
</svg>
